<mxfile host="app.diagrams.net" modified="2024-07-10T23:57:51.927Z" agent="Mozilla/5.0 (Macintosh; Intel Mac OS X 10_15_7) AppleWebKit/537.36 (KHTML, like Gecko) Chrome/126.0.0.0 Safari/537.36" etag="O3tzy8ZTXqltvJLUZ4wz" version="24.6.3" type="device">
  <diagram name="Page-1" id="7lOYam8AWCxRMxBZ-8En">
    <mxGraphModel dx="1224" dy="1146" grid="1" gridSize="10" guides="1" tooltips="1" connect="1" arrows="1" fold="1" page="1" pageScale="1" pageWidth="850" pageHeight="1100" math="0" shadow="0">
      <root>
        <mxCell id="0" />
        <mxCell id="1" parent="0" />
        <mxCell id="mP1LscIuJFCwR1YAqAkv-9" value="" style="group" parent="1" connectable="0" vertex="1">
          <mxGeometry x="1520" y="1100" width="80" height="80" as="geometry" />
        </mxCell>
        <mxCell id="mP1LscIuJFCwR1YAqAkv-7" value="" style="ellipse;whiteSpace=wrap;html=1;aspect=fixed;strokeColor=#455964;strokeWidth=3;fillColor=none;" parent="mP1LscIuJFCwR1YAqAkv-9" vertex="1">
          <mxGeometry width="80" height="80" as="geometry" />
        </mxCell>
        <mxCell id="mP1LscIuJFCwR1YAqAkv-8" value="" style="shape=image;verticalLabelPosition=bottom;labelBackgroundColor=default;verticalAlign=top;aspect=fixed;imageAspect=0;image=https://www.datocms-assets.com/58478/1638283616-packer.svg?auto=format&amp;fit=max&amp;w=1200;" parent="mP1LscIuJFCwR1YAqAkv-9" vertex="1">
          <mxGeometry width="80" height="80" as="geometry" />
        </mxCell>
        <mxCell id="mP1LscIuJFCwR1YAqAkv-44" style="edgeStyle=orthogonalEdgeStyle;rounded=0;orthogonalLoop=1;jettySize=auto;html=1;exitX=0;exitY=0.75;exitDx=0;exitDy=0;entryX=1;entryY=0.75;entryDx=0;entryDy=0;strokeWidth=3;curved=1;strokeColor=#455964;" parent="mP1LscIuJFCwR1YAqAkv-9" source="mP1LscIuJFCwR1YAqAkv-8" target="mP1LscIuJFCwR1YAqAkv-8" edge="1">
          <mxGeometry relative="1" as="geometry">
            <Array as="points">
              <mxPoint x="-40" y="60" />
              <mxPoint x="-40" y="120" />
              <mxPoint x="120" y="120" />
              <mxPoint x="120" y="60" />
            </Array>
          </mxGeometry>
        </mxCell>
        <mxCell id="mP1LscIuJFCwR1YAqAkv-17" value="" style="group" parent="1" connectable="0" vertex="1">
          <mxGeometry x="1760" y="1100" width="80" height="80" as="geometry" />
        </mxCell>
        <mxCell id="mP1LscIuJFCwR1YAqAkv-13" value="" style="ellipse;whiteSpace=wrap;html=1;aspect=fixed;strokeWidth=3;fillColor=none;strokeColor=#455964;" parent="mP1LscIuJFCwR1YAqAkv-17" vertex="1">
          <mxGeometry width="80" height="80" as="geometry" />
        </mxCell>
        <mxCell id="mP1LscIuJFCwR1YAqAkv-14" value="" style="shape=image;verticalLabelPosition=bottom;labelBackgroundColor=default;verticalAlign=top;aspect=fixed;imageAspect=0;image=https://www.msp360.com/resources/wp-content/uploads/2017/10/Amazon-EBS-Snapshot.png;" parent="mP1LscIuJFCwR1YAqAkv-17" vertex="1">
          <mxGeometry x="5" y="5" width="70" height="70" as="geometry" />
        </mxCell>
        <mxCell id="mP1LscIuJFCwR1YAqAkv-18" value="" style="group" parent="1" connectable="0" vertex="1">
          <mxGeometry x="2000" y="1100" width="80" height="80" as="geometry" />
        </mxCell>
        <mxCell id="mP1LscIuJFCwR1YAqAkv-15" value="" style="ellipse;whiteSpace=wrap;html=1;aspect=fixed;strokeColor=#455964;strokeWidth=3;fillColor=none;" parent="mP1LscIuJFCwR1YAqAkv-18" vertex="1">
          <mxGeometry width="80" height="80" as="geometry" />
        </mxCell>
        <mxCell id="mP1LscIuJFCwR1YAqAkv-16" value="" style="shape=image;verticalLabelPosition=bottom;labelBackgroundColor=default;verticalAlign=top;aspect=fixed;imageAspect=0;image=https://upload.wikimedia.org/wikipedia/commons/thumb/6/6b/AWS_Simple_Icons_Compute_Amazon_EC2_AMI.svg/1200px-AWS_Simple_Icons_Compute_Amazon_EC2_AMI.svg.png;" parent="mP1LscIuJFCwR1YAqAkv-18" vertex="1">
          <mxGeometry x="12.5" y="12.5" width="55" height="55" as="geometry" />
        </mxCell>
        <mxCell id="mP1LscIuJFCwR1YAqAkv-21" value="" style="group" parent="1" connectable="0" vertex="1">
          <mxGeometry x="2000" y="820" width="80" height="80" as="geometry" />
        </mxCell>
        <mxCell id="mP1LscIuJFCwR1YAqAkv-19" value="" style="ellipse;whiteSpace=wrap;html=1;aspect=fixed;strokeColor=#455964;strokeWidth=3;fillColor=none;" parent="mP1LscIuJFCwR1YAqAkv-21" vertex="1">
          <mxGeometry width="80" height="80" as="geometry" />
        </mxCell>
        <mxCell id="mP1LscIuJFCwR1YAqAkv-20" value="" style="shape=image;verticalLabelPosition=bottom;labelBackgroundColor=default;verticalAlign=top;aspect=fixed;imageAspect=0;image=https://upload.wikimedia.org/wikipedia/commons/thumb/b/b9/AWS_Simple_Icons_Compute_Amazon_EC2_Instances.svg/1024px-AWS_Simple_Icons_Compute_Amazon_EC2_Instances.svg.png;" parent="mP1LscIuJFCwR1YAqAkv-21" vertex="1">
          <mxGeometry x="9" y="9" width="62" height="62" as="geometry" />
        </mxCell>
        <mxCell id="mP1LscIuJFCwR1YAqAkv-23" style="edgeStyle=orthogonalEdgeStyle;rounded=0;orthogonalLoop=1;jettySize=auto;html=1;exitX=1;exitY=0.5;exitDx=0;exitDy=0;entryX=0;entryY=0.5;entryDx=0;entryDy=0;strokeWidth=3;strokeColor=#F79A19;" parent="1" source="mP1LscIuJFCwR1YAqAkv-7" target="mP1LscIuJFCwR1YAqAkv-13" edge="1">
          <mxGeometry relative="1" as="geometry" />
        </mxCell>
        <mxCell id="mP1LscIuJFCwR1YAqAkv-25" style="edgeStyle=orthogonalEdgeStyle;rounded=0;orthogonalLoop=1;jettySize=auto;html=1;exitX=1;exitY=0.5;exitDx=0;exitDy=0;entryX=0;entryY=0.5;entryDx=0;entryDy=0;strokeWidth=3;strokeColor=#F79A19;" parent="1" edge="1">
          <mxGeometry relative="1" as="geometry">
            <mxPoint x="1840" y="1139.52" as="sourcePoint" />
            <mxPoint x="2000" y="1139.52" as="targetPoint" />
          </mxGeometry>
        </mxCell>
        <mxCell id="mP1LscIuJFCwR1YAqAkv-26" value="&lt;b&gt;&lt;font color=&quot;#f79a19&quot; style=&quot;font-size: 20px;&quot;&gt;Create&lt;/font&gt;&lt;/b&gt;" style="text;html=1;strokeColor=none;fillColor=none;align=center;verticalAlign=middle;whiteSpace=wrap;rounded=0;fontFamily=Ubuntu;" parent="1" vertex="1">
          <mxGeometry x="1650" y="1100" width="60" height="30" as="geometry" />
        </mxCell>
        <mxCell id="mP1LscIuJFCwR1YAqAkv-27" value="&lt;b&gt;&lt;font color=&quot;#f79a19&quot; style=&quot;font-size: 20px;&quot;&gt;Register&lt;/font&gt;&lt;/b&gt;" style="text;html=1;strokeColor=none;fillColor=none;align=center;verticalAlign=middle;whiteSpace=wrap;rounded=0;fontFamily=Ubuntu;" parent="1" vertex="1">
          <mxGeometry x="1890" y="1100" width="60" height="30" as="geometry" />
        </mxCell>
        <mxCell id="mP1LscIuJFCwR1YAqAkv-30" style="edgeStyle=orthogonalEdgeStyle;rounded=0;orthogonalLoop=1;jettySize=auto;html=1;strokeWidth=3;strokeColor=#455964;exitX=0.5;exitY=1;exitDx=0;exitDy=0;" parent="1" source="mP1LscIuJFCwR1YAqAkv-15" edge="1">
          <mxGeometry relative="1" as="geometry">
            <mxPoint x="1960" y="1310" as="sourcePoint" />
            <mxPoint x="2040" y="1260" as="targetPoint" />
            <Array as="points">
              <mxPoint x="2040" y="1200" />
              <mxPoint x="2040" y="1200" />
            </Array>
          </mxGeometry>
        </mxCell>
        <mxCell id="mP1LscIuJFCwR1YAqAkv-31" value="&lt;b&gt;&lt;font color=&quot;#f79a19&quot; style=&quot;font-size: 20px;&quot;&gt;Deregister&lt;/font&gt;&lt;/b&gt;" style="text;html=1;strokeColor=none;fillColor=none;align=center;verticalAlign=middle;whiteSpace=wrap;rounded=0;fontFamily=Ubuntu;" parent="1" vertex="1">
          <mxGeometry x="2010" y="1270" width="60" height="30" as="geometry" />
        </mxCell>
        <mxCell id="mP1LscIuJFCwR1YAqAkv-38" value="" style="group" parent="1" connectable="0" vertex="1">
          <mxGeometry x="1520" y="820" width="80" height="80" as="geometry" />
        </mxCell>
        <mxCell id="mP1LscIuJFCwR1YAqAkv-46" value="" style="group" parent="mP1LscIuJFCwR1YAqAkv-38" connectable="0" vertex="1">
          <mxGeometry width="80" height="80" as="geometry" />
        </mxCell>
        <mxCell id="mP1LscIuJFCwR1YAqAkv-34" value="" style="ellipse;whiteSpace=wrap;html=1;aspect=fixed;strokeColor=#455964;strokeWidth=3;fillColor=none;" parent="mP1LscIuJFCwR1YAqAkv-46" vertex="1">
          <mxGeometry width="80" height="80" as="geometry" />
        </mxCell>
        <mxCell id="mP1LscIuJFCwR1YAqAkv-36" value="" style="shape=image;verticalLabelPosition=bottom;labelBackgroundColor=default;verticalAlign=top;aspect=fixed;imageAspect=0;image=https://dustindortch.files.wordpress.com/2020/08/terraform-logo.png?w=640;" parent="mP1LscIuJFCwR1YAqAkv-46" vertex="1">
          <mxGeometry x="5" y="5" width="75" height="75" as="geometry" />
        </mxCell>
        <mxCell id="mP1LscIuJFCwR1YAqAkv-48" style="edgeStyle=orthogonalEdgeStyle;rounded=0;orthogonalLoop=1;jettySize=auto;html=1;exitX=0;exitY=0.25;exitDx=0;exitDy=0;entryX=1;entryY=0.25;entryDx=0;entryDy=0;curved=1;strokeWidth=3;strokeColor=#455964;" parent="mP1LscIuJFCwR1YAqAkv-46" source="mP1LscIuJFCwR1YAqAkv-36" target="mP1LscIuJFCwR1YAqAkv-36" edge="1">
          <mxGeometry relative="1" as="geometry">
            <Array as="points">
              <mxPoint x="-40" y="24" />
              <mxPoint x="-40" y="-40" />
              <mxPoint x="120" y="-40" />
              <mxPoint x="120" y="24" />
            </Array>
          </mxGeometry>
        </mxCell>
        <mxCell id="mP1LscIuJFCwR1YAqAkv-39" style="edgeStyle=orthogonalEdgeStyle;rounded=0;orthogonalLoop=1;jettySize=auto;html=1;entryX=0;entryY=0.5;entryDx=0;entryDy=0;strokeColor=#F79A19;strokeWidth=3;exitX=1;exitY=0.5;exitDx=0;exitDy=0;" parent="1" source="mP1LscIuJFCwR1YAqAkv-34" target="mP1LscIuJFCwR1YAqAkv-19" edge="1">
          <mxGeometry relative="1" as="geometry">
            <mxPoint x="1650" y="920" as="sourcePoint" />
          </mxGeometry>
        </mxCell>
        <mxCell id="mP1LscIuJFCwR1YAqAkv-40" value="&lt;b&gt;&lt;font style=&quot;font-size: 20px;&quot;&gt;&lt;font color=&quot;#f79a19&quot;&gt;Launch&lt;/font&gt;&lt;br&gt;&lt;/font&gt;&lt;/b&gt;" style="text;html=1;strokeColor=none;fillColor=none;align=center;verticalAlign=middle;whiteSpace=wrap;rounded=0;fontFamily=Ubuntu;" parent="1" vertex="1">
          <mxGeometry x="1770" y="820" width="60" height="30" as="geometry" />
        </mxCell>
        <mxCell id="mP1LscIuJFCwR1YAqAkv-41" style="edgeStyle=orthogonalEdgeStyle;rounded=0;orthogonalLoop=1;jettySize=auto;html=1;entryX=0.5;entryY=1;entryDx=0;entryDy=0;curved=1;strokeColor=#F79A19;strokeWidth=3;" parent="1" source="mP1LscIuJFCwR1YAqAkv-15" target="mP1LscIuJFCwR1YAqAkv-34" edge="1">
          <mxGeometry relative="1" as="geometry">
            <Array as="points">
              <mxPoint x="2040" y="980" />
              <mxPoint x="1560" y="980" />
            </Array>
          </mxGeometry>
        </mxCell>
        <mxCell id="mP1LscIuJFCwR1YAqAkv-42" value="&lt;b&gt;&lt;font style=&quot;font-size: 20px;&quot;&gt;&lt;font color=&quot;#f79a19&quot;&gt;Fetch&lt;/font&gt;&lt;br&gt;&lt;/font&gt;&lt;/b&gt;" style="text;html=1;strokeColor=none;fillColor=none;align=center;verticalAlign=middle;whiteSpace=wrap;rounded=0;fontFamily=Ubuntu;" parent="1" vertex="1">
          <mxGeometry x="1770" y="940" width="60" height="30" as="geometry" />
        </mxCell>
        <mxCell id="mP1LscIuJFCwR1YAqAkv-49" value="&lt;b&gt;&lt;font color=&quot;#455964&quot; style=&quot;font-size: 20px;&quot;&gt;Validate&lt;/font&gt;&lt;/b&gt;" style="text;html=1;strokeColor=none;fillColor=none;align=center;verticalAlign=middle;whiteSpace=wrap;rounded=0;fontFamily=Ubuntu;" parent="1" vertex="1">
          <mxGeometry x="1530" y="1230" width="60" height="30" as="geometry" />
        </mxCell>
        <mxCell id="mP1LscIuJFCwR1YAqAkv-51" value="&lt;b&gt;&lt;font color=&quot;#455964&quot; style=&quot;font-size: 20px;&quot;&gt;Validate&lt;/font&gt;&lt;/b&gt;" style="text;html=1;strokeColor=none;fillColor=none;align=center;verticalAlign=middle;whiteSpace=wrap;rounded=0;fontFamily=Ubuntu;" parent="1" vertex="1">
          <mxGeometry x="1530" y="740" width="60" height="30" as="geometry" />
        </mxCell>
        <mxCell id="mP1LscIuJFCwR1YAqAkv-53" value="&lt;b&gt;&lt;font color=&quot;#455964&quot; style=&quot;font-size: 25px;&quot;&gt;IIaaS&lt;/font&gt;&lt;/b&gt;" style="text;html=1;strokeColor=none;fillColor=none;align=center;verticalAlign=middle;whiteSpace=wrap;rounded=0;fontFamily=Ubuntu;" parent="1" vertex="1">
          <mxGeometry x="2230" y="1000" width="188" height="30" as="geometry" />
        </mxCell>
        <mxCell id="LvAaSZ-Zg50VipKB94Ty-5" value="&lt;b&gt;&lt;font style=&quot;font-size: 20px;&quot;&gt;&lt;font color=&quot;#f79a19&quot;&gt;EC2 Instances&lt;/font&gt;&lt;br&gt;&lt;/font&gt;&lt;/b&gt;" style="text;html=1;strokeColor=none;fillColor=none;align=center;verticalAlign=middle;whiteSpace=wrap;rounded=0;fontFamily=Ubuntu;" parent="1" vertex="1">
          <mxGeometry x="2110" y="845" width="60" height="30" as="geometry" />
        </mxCell>
        <mxCell id="LvAaSZ-Zg50VipKB94Ty-6" value="&lt;b&gt;&lt;font style=&quot;font-size: 20px;&quot;&gt;&lt;font color=&quot;#f79a19&quot;&gt;AMI Image&lt;/font&gt;&lt;br&gt;&lt;/font&gt;&lt;/b&gt;" style="text;html=1;strokeColor=none;fillColor=none;align=center;verticalAlign=middle;whiteSpace=wrap;rounded=0;fontFamily=Ubuntu;" parent="1" vertex="1">
          <mxGeometry x="2100" y="1125" width="60" height="30" as="geometry" />
        </mxCell>
        <mxCell id="UgPG1pPApowK7JSl5bjV-5" style="edgeStyle=orthogonalEdgeStyle;rounded=0;orthogonalLoop=1;jettySize=auto;html=1;exitX=0.5;exitY=0;exitDx=0;exitDy=0;entryX=0.5;entryY=1;entryDx=0;entryDy=0;strokeColor=#455964;strokeWidth=3;" parent="1" source="LvAaSZ-Zg50VipKB94Ty-14" target="LvAaSZ-Zg50VipKB94Ty-15" edge="1">
          <mxGeometry relative="1" as="geometry" />
        </mxCell>
        <mxCell id="UgPG1pPApowK7JSl5bjV-8" value="&lt;font color=&quot;#455964&quot; style=&quot;font-size: 20px;&quot; face=&quot;Ubuntu&quot;&gt;&lt;b&gt;Customized Strategy&lt;/b&gt;&lt;/font&gt;" style="edgeLabel;html=1;align=center;verticalAlign=middle;resizable=0;points=[];" parent="UgPG1pPApowK7JSl5bjV-5" vertex="1" connectable="0">
          <mxGeometry x="0.0733" y="1" relative="1" as="geometry">
            <mxPoint x="1" y="16" as="offset" />
          </mxGeometry>
        </mxCell>
        <mxCell id="UgPG1pPApowK7JSl5bjV-10" style="edgeStyle=orthogonalEdgeStyle;rounded=0;orthogonalLoop=1;jettySize=auto;html=1;exitX=0;exitY=0.5;exitDx=0;exitDy=0;entryX=0;entryY=0.5;entryDx=0;entryDy=0;curved=1;strokeWidth=3;strokeColor=#455964;" parent="1" source="LvAaSZ-Zg50VipKB94Ty-14" target="LvAaSZ-Zg50VipKB94Ty-15" edge="1">
          <mxGeometry relative="1" as="geometry">
            <Array as="points">
              <mxPoint x="1160" y="1280" />
              <mxPoint x="1160" y="760" />
            </Array>
          </mxGeometry>
        </mxCell>
        <mxCell id="UgPG1pPApowK7JSl5bjV-12" value="&lt;font size=&quot;1&quot; color=&quot;#455964&quot; face=&quot;Ubuntu&quot;&gt;&lt;b style=&quot;font-size: 20px;&quot;&gt;GitHub Actions&lt;/b&gt;&lt;/font&gt;" style="edgeLabel;html=1;align=center;verticalAlign=middle;resizable=0;points=[];" parent="UgPG1pPApowK7JSl5bjV-10" vertex="1" connectable="0">
          <mxGeometry x="0.3285" y="-7" relative="1" as="geometry">
            <mxPoint y="2" as="offset" />
          </mxGeometry>
        </mxCell>
        <mxCell id="UgPG1pPApowK7JSl5bjV-11" style="edgeStyle=orthogonalEdgeStyle;rounded=0;orthogonalLoop=1;jettySize=auto;html=1;exitX=1;exitY=0.5;exitDx=0;exitDy=0;entryX=1;entryY=0.5;entryDx=0;entryDy=0;curved=1;strokeColor=#455964;strokeWidth=3;" parent="1" source="LvAaSZ-Zg50VipKB94Ty-14" target="LvAaSZ-Zg50VipKB94Ty-15" edge="1">
          <mxGeometry relative="1" as="geometry">
            <Array as="points">
              <mxPoint x="1400" y="1280" />
              <mxPoint x="1400" y="760" />
            </Array>
          </mxGeometry>
        </mxCell>
        <mxCell id="UgPG1pPApowK7JSl5bjV-14" value="&lt;font color=&quot;#455964&quot; style=&quot;font-size: 20px;&quot; face=&quot;Ubuntu&quot;&gt;&lt;b&gt;Screwdriver CD&lt;/b&gt;&lt;/font&gt;" style="edgeLabel;html=1;align=center;verticalAlign=middle;resizable=0;points=[];" parent="UgPG1pPApowK7JSl5bjV-11" vertex="1" connectable="0">
          <mxGeometry x="-0.3061" y="3" relative="1" as="geometry">
            <mxPoint y="16" as="offset" />
          </mxGeometry>
        </mxCell>
        <mxCell id="LvAaSZ-Zg50VipKB94Ty-14" value="&lt;font style=&quot;font-size: 20px;&quot; face=&quot;Ubuntu&quot; color=&quot;#455964&quot;&gt;&lt;b&gt;Code&lt;/b&gt;&lt;/font&gt;" style="ellipse;whiteSpace=wrap;html=1;aspect=fixed;strokeColor=#455964;strokeWidth=3;fillColor=#80D8FF;" parent="1" vertex="1">
          <mxGeometry x="1240" y="1240" width="80" height="80" as="geometry" />
        </mxCell>
        <mxCell id="LvAaSZ-Zg50VipKB94Ty-15" value="&lt;font color=&quot;#ffffff&quot; style=&quot;font-size: 20px;&quot; face=&quot;Ubuntu&quot;&gt;&lt;b style=&quot;&quot;&gt;App&lt;/b&gt;&lt;/font&gt;" style="ellipse;whiteSpace=wrap;html=1;aspect=fixed;strokeColor=#455964;strokeWidth=3;fillColor=#FF9A01;" parent="1" vertex="1">
          <mxGeometry x="1240" y="720" width="80" height="80" as="geometry" />
        </mxCell>
        <mxCell id="UgPG1pPApowK7JSl5bjV-15" value="" style="endArrow=none;dashed=1;html=1;rounded=0;strokeWidth=3;strokeColor=#455964;" parent="1" edge="1">
          <mxGeometry width="50" height="50" relative="1" as="geometry">
            <mxPoint x="1480" y="1320" as="sourcePoint" />
            <mxPoint x="2400" y="1320" as="targetPoint" />
          </mxGeometry>
        </mxCell>
        <mxCell id="UgPG1pPApowK7JSl5bjV-16" value="" style="endArrow=none;dashed=1;html=1;rounded=0;strokeWidth=3;strokeColor=#455964;" parent="1" edge="1">
          <mxGeometry width="50" height="50" relative="1" as="geometry">
            <mxPoint x="1480" y="720" as="sourcePoint" />
            <mxPoint x="2400" y="720" as="targetPoint" />
          </mxGeometry>
        </mxCell>
        <mxCell id="UgPG1pPApowK7JSl5bjV-17" value="" style="endArrow=classic;html=1;rounded=0;strokeWidth=3;strokeColor=#455964;" parent="1" edge="1">
          <mxGeometry width="50" height="50" relative="1" as="geometry">
            <mxPoint x="2320" y="990" as="sourcePoint" />
            <mxPoint x="2320" y="730" as="targetPoint" />
          </mxGeometry>
        </mxCell>
        <mxCell id="UgPG1pPApowK7JSl5bjV-18" value="" style="endArrow=classic;html=1;rounded=0;strokeWidth=3;strokeColor=#455964;" parent="1" edge="1">
          <mxGeometry width="50" height="50" relative="1" as="geometry">
            <mxPoint x="2320" y="1050" as="sourcePoint" />
            <mxPoint x="2320" y="1310" as="targetPoint" />
          </mxGeometry>
        </mxCell>
      </root>
    </mxGraphModel>
  </diagram>
</mxfile>
